<svg id="svg" version="1.1" width="400" height="453.4653465346535" xmlns="http://www.w3.org/2000/svg" xmlns:xlink="http://www.w3.org/1999/xlink" style="display: block;"><g id="svgg"><path id="path0" d="M141.400 224.399 C 139.860 224.569,137.880 224.898,137.000 225.132 C 136.120 225.365,133.880 225.759,132.023 226.007 C 130.165 226.256,128.185 226.695,127.623 226.984 C 127.060 227.273,125.540 227.727,124.244 227.994 C 122.948 228.261,121.328 228.821,120.644 229.239 C 119.960 229.656,118.929 229.998,118.354 229.999 C 117.779 229.999,116.879 230.337,116.354 230.748 C 115.829 231.159,114.817 231.623,114.105 231.779 C 113.392 231.934,112.701 232.237,112.568 232.452 C 112.435 232.667,111.398 233.284,110.263 233.823 C 100.289 238.563,87.704 249.631,80.887 259.658 C 78.664 262.928,77.614 264.626,77.607 264.962 C 77.603 265.161,77.150 265.914,76.600 266.636 C 76.050 267.357,75.600 268.096,75.600 268.279 C 75.600 268.462,75.253 269.260,74.828 270.052 C 74.404 270.844,73.934 272.147,73.783 272.949 C 73.633 273.751,73.185 274.820,72.788 275.325 C 72.391 275.830,71.944 276.953,71.796 277.821 C 71.647 278.690,71.211 279.850,70.828 280.400 C 70.444 280.950,70.005 282.467,69.853 283.772 C 69.701 285.077,69.244 286.697,68.839 287.372 C 68.336 288.211,68.024 289.773,67.855 292.303 C 67.719 294.339,67.328 297.237,66.986 298.742 C 66.180 302.287,66.371 313.742,67.328 319.200 C 67.695 321.290,67.996 323.845,67.997 324.877 C 67.999 326.020,68.307 327.275,68.786 328.086 C 69.218 328.819,69.697 330.494,69.851 331.809 C 70.004 333.124,70.444 334.650,70.828 335.200 C 71.211 335.750,71.647 336.910,71.796 337.779 C 71.944 338.647,72.396 339.777,72.800 340.291 C 73.203 340.804,73.653 341.928,73.798 342.789 C 73.944 343.650,74.307 344.557,74.606 344.805 C 74.904 345.052,75.270 345.828,75.417 346.528 C 75.565 347.227,76.021 348.165,76.429 348.611 C 77.438 349.712,77.045 351.116,75.683 351.277 C 74.680 351.396,74.671 351.422,75.382 352.130 C 75.900 352.644,76.200 352.723,76.402 352.398 C 76.982 351.459,78.959 352.123,79.387 353.400 C 79.608 354.060,80.000 354.735,80.257 354.899 C 81.063 355.413,80.403 356.800,79.353 356.800 C 78.138 356.800,78.109 357.750,79.300 358.588 C 80.121 359.166,80.212 359.166,80.334 358.588 C 80.551 357.558,82.877 357.989,83.461 359.168 C 83.725 359.700,84.224 360.294,84.571 360.488 C 84.917 360.681,85.200 361.094,85.200 361.406 C 85.200 361.717,85.539 362.153,85.954 362.375 C 86.369 362.597,86.817 363.212,86.950 363.742 C 87.083 364.271,87.553 364.799,87.996 364.915 C 88.478 365.041,88.800 365.460,88.800 365.963 C 88.800 366.523,89.055 366.800,89.572 366.800 C 90.068 366.800,90.390 367.122,90.472 367.700 C 90.552 368.263,90.921 368.646,91.459 368.722 C 91.932 368.790,92.410 369.195,92.522 369.622 C 92.640 370.075,93.069 370.400,93.548 370.400 C 94.001 370.400,94.565 370.760,94.800 371.200 C 95.035 371.640,95.440 372.000,95.700 372.000 C 95.960 372.000,96.538 372.355,96.986 372.788 C 99.884 375.593,100.774 376.338,101.504 376.570 C 101.956 376.713,102.427 377.094,102.550 377.415 C 102.674 377.737,103.105 378.000,103.507 378.000 C 104.927 378.000,105.972 380.476,104.728 380.891 C 104.071 381.110,104.635 382.400,105.387 382.400 C 105.731 382.400,106.000 382.053,106.000 381.608 C 106.000 380.548,107.781 380.086,108.716 380.902 C 109.092 381.230,110.074 381.715,110.897 381.979 C 111.720 382.244,112.530 382.689,112.697 382.968 C 112.864 383.248,113.613 383.595,114.362 383.741 C 116.121 384.082,116.800 384.669,116.800 385.849 C 116.800 386.950,117.097 387.013,118.604 386.232 C 120.351 385.325,122.000 386.207,122.000 388.049 C 122.000 388.709,122.384 389.584,122.900 390.100 L 123.800 391.000 123.927 389.891 C 124.227 387.281,128.800 387.176,128.800 389.780 C 128.800 391.018,130.311 391.182,132.347 390.166 C 134.401 389.142,139.867 390.266,140.080 391.757 L 140.200 392.600 185.400 392.600 L 230.600 392.600 230.720 391.757 C 230.948 390.165,238.766 388.823,240.092 390.149 C 241.087 391.144,242.000 390.968,242.000 389.780 C 242.000 387.966,246.722 386.779,248.171 388.229 C 248.743 388.800,248.800 388.771,248.800 387.909 C 248.800 385.237,252.091 385.319,252.462 388.000 L 252.600 389.000 253.453 388.147 C 254.046 387.554,254.246 386.972,254.106 386.244 C 253.843 384.865,254.549 384.080,256.340 383.761 C 257.143 383.618,258.160 383.184,258.600 382.797 C 259.040 382.409,259.850 381.961,260.400 381.800 C 260.950 381.639,261.760 381.189,262.200 380.800 C 262.640 380.411,263.450 379.961,264.000 379.800 C 264.550 379.639,265.388 379.153,265.862 378.720 C 266.542 378.098,266.892 378.021,267.515 378.354 C 268.205 378.724,268.335 378.626,268.543 377.584 C 268.701 376.793,269.155 376.226,269.891 375.902 C 270.501 375.633,271.235 375.095,271.523 374.706 C 271.810 374.318,272.299 374.000,272.609 374.000 C 272.918 374.000,273.365 373.640,273.600 373.200 C 273.904 372.632,274.438 372.400,275.438 372.400 C 276.428 372.400,276.775 372.251,276.605 371.900 C 276.472 371.625,276.656 371.794,277.015 372.276 C 277.563 373.014,277.815 373.085,278.611 372.722 C 279.716 372.219,280.241 371.200,279.395 371.200 C 277.883 371.200,278.285 369.240,280.173 367.405 C 282.062 365.570,284.000 364.959,284.000 366.200 C 284.000 367.040,285.092 366.950,285.562 366.071 C 285.776 365.670,285.866 364.420,285.761 363.293 C 285.598 361.530,285.685 361.183,286.386 360.808 C 286.834 360.568,287.200 360.115,287.200 359.802 C 287.200 359.488,287.526 358.909,287.924 358.516 C 289.297 357.159,292.910 351.538,294.811 347.800 C 295.258 346.920,295.793 345.930,295.999 345.600 C 296.670 344.526,298.742 339.770,299.018 338.670 C 299.166 338.081,299.628 336.930,300.044 336.114 C 300.460 335.298,300.804 334.174,300.809 333.615 C 300.814 333.057,301.169 331.825,301.599 330.878 C 302.029 329.931,302.558 327.771,302.774 326.078 C 302.990 324.385,303.479 322.010,303.859 320.800 C 304.883 317.545,304.883 298.055,303.859 294.800 C 303.479 293.590,302.990 291.215,302.774 289.522 C 302.558 287.829,302.029 285.669,301.599 284.722 C 301.169 283.775,300.814 282.543,300.809 281.985 C 300.804 281.426,300.450 280.284,300.023 279.446 C 299.596 278.608,299.125 277.370,298.977 276.695 C 298.829 276.020,298.302 274.706,297.807 273.775 C 297.312 272.843,296.704 271.568,296.457 270.941 C 295.763 269.182,292.308 263.065,291.300 261.812 C 290.805 261.196,290.400 260.536,290.400 260.346 C 290.400 260.156,290.129 259.685,289.797 259.300 C 289.466 258.915,287.728 256.800,285.936 254.600 C 281.101 248.665,274.050 242.122,269.024 238.905 C 267.911 238.193,266.574 237.293,266.054 236.905 C 265.004 236.122,263.447 235.243,260.917 234.002 C 259.991 233.549,259.145 233.034,259.037 232.859 C 258.929 232.684,258.066 232.295,257.120 231.993 C 256.174 231.691,254.971 231.119,254.446 230.722 C 253.921 230.325,253.104 230.000,252.631 230.000 C 252.157 230.000,251.079 229.648,250.236 229.218 C 249.392 228.788,247.689 228.228,246.451 227.973 C 245.213 227.717,243.740 227.273,243.177 226.984 C 242.615 226.695,240.635 226.252,238.777 225.999 C 236.920 225.746,234.320 225.248,233.000 224.892 C 230.369 224.183,147.411 223.736,141.400 224.399 M189.100 253.154 C 189.815 253.442,190.400 253.812,190.400 253.976 C 190.400 254.139,191.075 254.481,191.900 254.734 C 192.725 254.988,194.381 256.097,195.579 257.198 C 196.778 258.299,197.903 259.200,198.079 259.200 C 198.256 259.200,198.400 259.466,198.400 259.791 C 198.400 260.116,198.852 260.678,199.405 261.040 C 199.957 261.402,200.513 262.113,200.641 262.620 C 200.768 263.126,201.208 263.845,201.618 264.217 C 202.029 264.588,202.485 265.726,202.631 266.746 C 202.778 267.766,203.191 268.934,203.549 269.342 C 204.647 270.593,204.732 279.454,203.667 281.689 C 203.218 282.630,202.727 284.089,202.575 284.931 C 202.424 285.774,201.987 286.764,201.606 287.131 C 201.225 287.499,200.805 288.252,200.673 288.804 C 200.367 290.085,195.787 294.754,194.168 295.435 C 193.491 295.720,192.708 296.229,192.428 296.566 C 192.148 296.903,191.263 297.296,190.460 297.440 C 189.657 297.584,188.666 297.994,188.258 298.351 C 187.004 299.448,129.777 299.539,127.442 298.447 C 126.539 298.025,125.125 297.468,124.300 297.209 C 123.475 296.950,122.800 296.563,122.800 296.349 C 122.800 296.134,122.215 295.712,121.500 295.410 C 119.343 294.499,114.400 289.204,114.400 287.804 C 114.400 287.610,114.051 287.080,113.625 286.626 C 113.172 286.144,112.683 284.767,112.450 283.322 C 112.231 281.959,111.860 280.486,111.626 280.048 C 111.110 279.085,111.053 271.738,111.559 271.426 C 111.756 271.304,112.128 269.988,112.386 268.502 C 112.644 267.016,113.179 265.440,113.575 265.000 C 113.971 264.560,114.404 263.738,114.537 263.172 C 114.961 261.370,121.240 255.399,123.200 254.933 C 123.750 254.802,124.580 254.350,125.045 253.929 C 125.562 253.461,126.882 253.030,128.445 252.820 C 132.819 252.233,187.564 252.534,189.100 253.154 " stroke="none" fill="#ffffff" fill-rule="evenodd"></path><path id="path1" d="M171.600 15.844 C 171.600 16.603,171.811 16.800,172.624 16.800 C 173.187 16.800,173.544 16.632,173.417 16.428 C 173.291 16.223,173.370 15.942,173.593 15.804 C 173.817 15.666,174.000 15.833,174.000 16.176 C 174.000 17.261,176.123 16.959,176.661 15.799 L 177.123 14.804 174.361 14.846 C 171.728 14.886,171.600 14.932,171.600 15.844 M219.421 15.478 C 219.739 15.796,220.000 16.224,220.000 16.429 C 220.000 16.990,222.304 16.874,222.535 16.300 C 222.696 15.900,222.743 15.900,222.768 16.300 C 222.835 17.359,224.800 16.867,224.800 15.791 C 224.800 14.799,224.754 14.784,221.821 14.841 C 219.219 14.891,218.915 14.972,219.421 15.478 M164.100 17.076 C 164.485 17.176,164.800 17.436,164.800 17.653 C 164.800 17.870,164.980 17.936,165.200 17.800 C 165.972 17.323,165.589 16.800,164.500 16.846 C 163.823 16.875,163.669 16.963,164.100 17.076 M239.000 19.200 C 239.136 19.420,239.507 19.600,239.824 19.600 C 240.141 19.600,240.400 19.420,240.400 19.200 C 240.400 18.980,240.029 18.800,239.576 18.800 C 239.123 18.800,238.864 18.980,239.000 19.200 M247.200 20.951 C 247.200 21.034,247.470 21.326,247.800 21.600 C 248.291 22.008,248.400 21.980,248.400 21.449 C 248.400 21.092,248.130 20.800,247.800 20.800 C 247.470 20.800,247.200 20.868,247.200 20.951 M141.628 23.900 C 141.652 24.819,141.706 24.874,141.958 24.230 C 142.124 23.806,142.606 23.324,143.030 23.158 C 143.674 22.906,143.619 22.852,142.700 22.828 C 141.753 22.804,141.604 22.953,141.628 23.900 M252.400 22.953 C 252.400 23.038,252.850 23.193,253.400 23.298 C 253.950 23.403,254.400 23.334,254.400 23.145 C 254.400 22.955,253.950 22.800,253.400 22.800 C 252.850 22.800,252.400 22.869,252.400 22.953 M137.713 25.900 C 137.661 26.849,137.700 26.890,137.998 26.200 C 138.448 25.158,138.471 24.800,138.087 24.800 C 137.915 24.800,137.747 25.295,137.713 25.900 M132.000 27.176 C 132.000 27.383,132.208 27.681,132.462 27.838 C 132.736 28.008,132.815 27.949,132.657 27.692 C 132.510 27.455,132.707 27.178,133.095 27.077 C 133.632 26.937,133.585 26.882,132.900 26.846 C 132.405 26.821,132.000 26.969,132.000 27.176 M262.800 27.200 C 262.800 27.420,263.025 27.555,263.300 27.500 C 263.575 27.445,263.755 27.625,263.700 27.900 C 263.645 28.175,263.780 28.400,264.000 28.400 C 264.220 28.400,264.400 28.040,264.400 27.600 C 264.400 27.067,264.133 26.800,263.600 26.800 C 263.160 26.800,262.800 26.980,262.800 27.200 M128.000 29.713 C 128.000 30.398,128.250 30.646,129.000 30.708 C 129.550 30.754,130.000 30.602,130.000 30.372 C 130.000 30.141,129.820 30.064,129.600 30.200 C 129.380 30.336,129.200 30.257,129.200 30.024 C 129.200 29.791,129.391 29.600,129.624 29.600 C 129.857 29.600,129.936 29.420,129.800 29.200 C 129.300 28.391,128.000 28.762,128.000 29.713 M266.553 29.276 C 266.391 29.538,266.471 29.824,266.732 29.911 C 266.992 29.997,267.110 30.222,266.994 30.410 C 266.878 30.598,267.125 30.726,267.544 30.694 C 268.072 30.654,268.289 30.356,268.253 29.719 C 268.196 28.732,267.070 28.439,266.553 29.276 M124.267 31.067 C 123.586 31.747,124.031 32.800,125.000 32.800 C 125.800 32.800,126.000 32.600,126.000 31.800 C 126.000 30.831,124.947 30.386,124.267 31.067 M270.000 31.800 C 270.000 32.644,270.187 32.800,271.200 32.800 C 272.213 32.800,272.400 32.644,272.400 31.800 C 272.400 30.956,272.213 30.800,271.200 30.800 C 270.187 30.800,270.000 30.956,270.000 31.800 M110.267 39.067 C 109.586 39.747,110.031 40.800,111.000 40.800 C 111.550 40.800,112.014 40.665,112.031 40.500 C 112.047 40.335,112.122 39.885,112.195 39.500 C 112.330 38.796,110.866 38.467,110.267 39.067 M284.000 39.800 C 284.000 40.600,284.200 40.800,285.000 40.800 C 285.800 40.800,286.000 40.600,286.000 39.800 C 286.000 39.000,285.800 38.800,285.000 38.800 C 284.200 38.800,284.000 39.000,284.000 39.800 M104.000 43.861 C 104.000 45.227,105.830 45.199,106.092 43.828 C 106.255 42.979,106.136 42.861,105.139 42.889 C 104.220 42.915,104.000 43.103,104.000 43.861 M290.000 43.850 C 290.000 44.597,290.214 44.800,291.000 44.800 C 291.786 44.800,292.000 44.597,292.000 43.850 C 292.000 43.103,291.786 42.900,291.000 42.900 C 290.214 42.900,290.000 43.103,290.000 43.850 M96.243 49.433 C 95.803 50.578,95.986 50.855,97.100 50.727 C 98.619 50.552,98.956 48.800,97.471 48.800 C 96.929 48.800,96.376 49.085,96.243 49.433 M297.902 49.800 C 298.051 50.577,298.338 50.800,299.191 50.800 C 300.147 50.800,300.264 50.670,300.098 49.800 C 299.949 49.023,299.662 48.800,298.809 48.800 C 297.853 48.800,297.736 48.930,297.902 49.800 M84.707 59.600 C 84.432 60.040,83.801 60.400,83.304 60.400 C 82.767 60.400,82.400 60.644,82.400 61.000 C 82.400 61.330,82.591 61.600,82.824 61.600 C 83.057 61.600,83.136 61.420,83.000 61.200 C 82.864 60.980,83.103 60.800,83.530 60.800 C 83.958 60.800,84.603 60.350,84.963 59.800 C 85.324 59.250,85.526 58.800,85.413 58.800 C 85.299 58.800,84.982 59.160,84.707 59.600 M310.475 59.225 C 310.571 59.514,310.886 59.829,311.175 59.925 C 311.475 60.025,311.625 59.875,311.525 59.575 C 311.429 59.286,311.114 58.971,310.825 58.875 C 310.525 58.775,310.375 58.925,310.475 59.225 M312.570 60.758 C 312.994 60.924,313.476 61.406,313.642 61.830 C 313.894 62.474,313.948 62.419,313.972 61.500 C 313.996 60.553,313.847 60.404,312.900 60.428 C 311.981 60.452,311.926 60.506,312.570 60.758 M76.400 67.476 C 76.400 68.378,76.481 68.459,76.900 67.976 C 77.175 67.659,77.661 67.175,77.980 66.900 C 78.467 66.480,78.387 66.400,77.480 66.400 C 76.574 66.400,76.400 66.574,76.400 67.476 M318.681 67.387 C 319.601 68.652,320.000 68.655,320.000 67.400 C 320.000 66.595,319.801 66.400,318.981 66.400 C 317.971 66.400,317.968 66.408,318.681 67.387 M31.500 72.676 C 31.115 72.776,30.800 73.205,30.800 73.629 C 30.800 74.305,30.503 74.400,28.400 74.400 C 25.862 74.400,25.782 74.446,26.378 75.560 C 26.661 76.089,26.607 76.267,26.161 76.267 C 25.834 76.267,25.655 76.032,25.765 75.746 C 25.875 75.460,25.788 75.116,25.573 74.983 C 25.357 74.850,25.206 74.889,25.237 75.070 C 25.408 76.052,25.084 76.400,24.000 76.400 C 22.987 76.400,22.800 76.556,22.800 77.400 C 22.800 78.200,22.600 78.400,21.800 78.400 C 21.000 78.400,20.800 78.600,20.800 79.400 C 20.800 80.200,20.600 80.400,19.800 80.400 C 19.000 80.400,18.800 80.600,18.800 81.400 C 18.800 82.200,18.600 82.400,17.800 82.400 C 17.000 82.400,16.800 82.600,16.800 83.400 C 16.800 84.170,16.593 84.400,15.900 84.401 C 15.152 84.401,14.983 84.646,14.897 85.844 C 14.768 87.647,14.552 88.000,13.576 88.000 C 12.912 88.000,12.800 88.287,12.800 89.986 C 12.800 91.562,12.635 92.060,12.000 92.400 C 10.753 93.068,10.732 424.400,11.979 424.400 C 12.637 424.400,12.777 424.727,12.879 426.500 C 12.969 428.063,13.145 428.569,13.568 428.477 C 14.044 428.375,14.050 428.458,13.602 428.998 C 13.143 429.551,13.189 429.672,13.934 429.867 C 14.569 430.033,14.800 430.400,14.800 431.247 C 14.800 431.881,14.935 432.379,15.100 432.353 C 16.282 432.166,16.800 432.485,16.800 433.400 C 16.800 434.200,17.000 434.400,17.800 434.400 C 18.600 434.400,18.800 434.600,18.800 435.400 C 18.800 436.200,19.000 436.400,19.800 436.400 C 20.600 436.400,20.800 436.600,20.800 437.400 C 20.800 438.200,21.000 438.400,21.800 438.400 C 22.722 438.400,22.968 438.731,22.850 439.813 C 22.811 440.167,23.535 440.361,25.418 440.502 C 25.962 440.543,26.848 441.497,26.708 441.892 C 26.649 442.061,27.590 442.290,28.800 442.400 C 30.768 442.579,30.997 442.695,30.968 443.500 C 30.934 444.470,31.406 444.716,31.735 443.900 C 31.896 443.500,31.943 443.500,31.968 443.900 C 31.993 444.287,34.524 444.400,43.200 444.400 L 54.400 444.400 54.400 443.400 C 54.400 442.476,54.544 442.399,56.300 442.386 C 57.345 442.378,58.650 442.096,59.200 441.758 C 59.750 441.421,59.885 441.242,59.500 441.360 C 59.115 441.478,58.800 441.418,58.800 441.227 C 58.800 441.036,59.475 440.722,60.300 440.529 C 61.240 440.310,61.945 439.853,62.188 439.306 C 62.401 438.826,62.941 438.380,63.388 438.316 C 63.871 438.247,64.250 437.845,64.325 437.325 C 64.402 436.779,64.779 436.402,65.325 436.325 C 65.879 436.246,66.247 435.870,66.328 435.300 C 66.420 434.649,66.724 434.400,67.428 434.400 C 68.198 434.400,68.400 434.192,68.400 433.400 C 68.400 432.485,68.918 432.166,70.100 432.353 C 70.265 432.379,70.400 431.888,70.400 431.261 C 70.400 430.487,70.688 429.971,71.300 429.649 C 71.795 429.388,71.885 429.265,71.500 429.375 C 71.115 429.485,70.800 429.422,70.800 429.234 C 70.800 429.047,71.160 428.799,71.600 428.684 C 72.268 428.509,72.400 428.138,72.400 426.437 C 72.400 424.535,72.466 424.400,73.392 424.400 L 74.384 424.400 74.396 386.596 C 74.405 355.713,74.308 348.555,73.866 347.496 C 73.569 346.783,73.192 345.490,73.030 344.621 C 72.867 343.753,72.389 342.604,71.967 342.067 C 71.545 341.531,71.200 340.710,71.200 340.243 C 71.200 339.776,70.750 338.548,70.200 337.515 C 69.650 336.482,69.200 335.273,69.200 334.827 C 69.200 334.382,68.777 332.889,68.260 331.509 C 67.744 330.129,67.193 328.022,67.037 326.827 C 66.881 325.632,66.405 323.202,65.979 321.427 C 65.132 317.894,64.846 299.162,65.588 295.800 C 65.782 294.920,66.233 292.670,66.589 290.800 C 66.946 288.930,67.683 285.960,68.226 284.200 C 68.769 282.440,69.211 280.767,69.207 280.482 C 69.203 280.197,69.650 279.118,70.200 278.085 C 70.750 277.052,71.200 275.824,71.200 275.357 C 71.200 274.890,71.605 273.993,72.100 273.364 L 73.000 272.220 73.104 185.055 C 73.167 131.677,73.062 97.407,72.832 96.645 C 71.982 93.822,70.463 90.089,69.476 88.400 C 67.606 85.197,66.811 83.431,66.552 81.900 C 66.342 80.660,66.134 80.400,65.349 80.400 C 64.603 80.400,64.400 80.186,64.400 79.400 C 64.400 78.600,64.200 78.400,63.400 78.400 C 62.600 78.400,62.400 78.200,62.400 77.400 C 62.400 76.619,62.196 76.400,61.467 76.400 C 60.953 76.400,60.398 76.265,60.233 76.100 C 60.068 75.935,59.768 75.778,59.567 75.750 C 59.365 75.723,59.020 75.677,58.800 75.650 C 58.580 75.623,58.400 75.330,58.400 75.000 C 58.400 74.547,57.911 74.400,56.400 74.400 C 54.533 74.400,54.400 74.333,54.400 73.400 L 54.400 72.400 43.300 72.446 C 37.195 72.472,31.885 72.575,31.500 72.676 M345.619 72.761 C 345.300 72.973,344.882 73.051,344.692 72.933 C 344.502 72.816,344.247 73.098,344.126 73.560 C 343.921 74.345,343.637 74.400,339.753 74.400 L 335.600 74.400 335.600 75.400 C 335.600 76.319,335.453 76.400,333.800 76.400 C 332.147 76.400,332.000 76.481,332.000 77.400 C 332.000 78.344,331.878 78.400,329.825 78.400 C 327.821 78.400,327.653 78.471,327.698 79.300 C 327.830 81.745,327.527 82.450,325.300 84.885 C 321.573 88.960,319.958 91.682,318.111 97.000 L 317.000 100.200 316.696 218.600 C 316.528 283.720,316.348 357.070,316.296 381.600 L 316.200 426.200 317.100 426.328 C 317.894 426.441,318.000 426.687,318.000 428.428 C 318.000 430.265,318.069 430.400,319.000 430.400 C 319.829 430.400,320.000 430.592,320.000 431.520 C 320.000 432.136,320.225 432.882,320.500 433.179 C 320.904 433.614,320.894 433.657,320.448 433.403 C 320.072 433.189,319.955 433.266,320.081 433.644 C 320.183 433.950,320.477 434.222,320.733 434.250 C 320.990 434.277,321.380 434.323,321.600 434.350 C 321.820 434.377,322.000 434.871,322.000 435.447 C 322.000 436.347,322.139 436.467,323.000 436.302 C 323.886 436.133,324.000 436.247,324.000 437.302 C 324.000 438.357,324.114 438.471,325.000 438.302 C 325.883 438.133,326.000 438.248,326.000 439.284 C 326.000 440.328,326.121 440.443,327.100 440.329 C 328.023 440.221,328.181 440.337,328.083 441.049 C 327.958 441.961,328.845 442.384,330.900 442.395 C 331.505 442.398,332.000 442.567,332.000 442.771 C 332.000 443.507,333.279 444.400,334.334 444.400 C 335.011 444.400,335.685 444.766,336.151 445.387 L 336.892 446.374 347.546 446.372 L 358.199 446.371 359.069 445.359 C 359.705 444.619,360.378 444.326,361.569 444.273 C 362.969 444.210,363.198 444.074,363.199 443.300 C 363.200 442.586,363.428 442.399,364.300 442.395 C 366.355 442.384,367.242 441.961,367.117 441.049 C 367.019 440.337,367.177 440.221,368.100 440.329 C 369.079 440.443,369.200 440.328,369.200 439.284 C 369.200 438.258,369.322 438.134,370.169 438.296 C 370.992 438.453,371.159 438.309,371.269 437.341 C 371.375 436.420,371.577 436.219,372.317 436.298 C 372.860 436.357,373.208 436.193,373.170 435.898 C 373.028 434.806,373.239 434.450,374.100 434.328 C 374.866 434.219,375.018 433.921,375.121 432.325 C 375.223 430.744,375.379 430.431,376.121 430.325 C 376.862 430.220,377.019 429.907,377.121 428.325 C 377.223 426.744,377.379 426.431,378.121 426.325 L 379.000 426.200 379.000 260.200 L 379.000 94.200 378.100 94.072 C 377.272 93.955,376.844 92.253,377.153 90.300 C 377.179 90.135,376.750 90.000,376.200 90.000 C 375.281 90.000,375.200 89.853,375.200 88.200 C 375.200 86.547,375.119 86.400,374.200 86.400 C 373.400 86.400,373.200 86.200,373.200 85.400 C 373.200 84.600,373.000 84.400,372.200 84.400 C 371.400 84.400,371.200 84.200,371.200 83.400 C 371.200 82.600,371.000 82.400,370.200 82.400 C 369.400 82.400,369.200 82.200,369.200 81.400 C 369.200 80.600,369.000 80.400,368.200 80.400 C 367.255 80.400,367.020 80.057,367.170 78.900 C 367.215 78.558,366.600 78.400,365.218 78.400 C 363.332 78.400,363.200 78.334,363.200 77.400 C 363.200 76.481,363.053 76.400,361.400 76.400 C 359.747 76.400,359.600 76.319,359.600 75.400 L 359.600 74.400 355.400 74.400 C 352.596 74.400,351.200 74.253,351.200 73.957 C 351.200 73.711,350.909 73.626,350.543 73.766 C 350.026 73.965,349.983 73.903,350.337 73.476 C 350.837 72.873,350.915 72.903,348.000 72.576 C 347.010 72.466,345.939 72.549,345.619 72.761 M326.800 76.976 C 326.800 77.293,326.980 77.664,327.200 77.800 C 327.420 77.936,327.600 77.677,327.600 77.224 C 327.600 76.771,327.420 76.400,327.200 76.400 C 326.980 76.400,326.800 76.659,326.800 76.976 M66.400 79.176 C 66.400 79.603,66.580 80.064,66.800 80.200 C 67.020 80.336,67.200 80.235,67.200 79.975 C 67.200 79.622,67.353 79.629,67.800 80.000 C 68.291 80.408,68.400 80.380,68.400 79.849 C 68.400 79.492,68.175 79.197,67.900 79.194 C 67.567 79.190,67.600 79.058,68.000 78.800 C 68.468 78.498,68.357 78.411,67.500 78.406 C 66.676 78.402,66.400 78.595,66.400 79.176 M203.534 108.506 C 200.154 111.490,199.709 116.034,202.480 119.277 C 203.536 120.512,208.008 121.695,215.147 122.626 C 217.428 122.923,220.578 123.440,222.147 123.775 C 223.716 124.110,226.530 124.579,228.400 124.816 C 230.270 125.054,232.790 125.497,234.000 125.801 C 235.210 126.105,237.370 126.473,238.800 126.619 C 240.230 126.765,243.020 127.220,245.000 127.630 C 246.980 128.040,250.185 128.568,252.123 128.802 C 254.060 129.036,256.670 129.484,257.923 129.796 C 259.175 130.108,261.941 130.551,264.070 130.780 C 266.198 131.009,268.399 131.372,268.961 131.585 C 269.524 131.799,272.192 132.250,274.892 132.587 C 277.591 132.924,280.684 133.470,281.764 133.800 C 288.431 135.837,292.800 133.060,292.800 126.787 C 292.800 123.474,290.667 121.042,287.391 120.619 C 286.296 120.478,284.342 120.085,283.049 119.746 C 281.756 119.407,279.009 118.970,276.944 118.775 C 274.880 118.580,272.248 118.155,271.095 117.832 C 269.943 117.509,267.740 117.127,266.200 116.983 C 264.660 116.839,261.870 116.393,260.000 115.992 C 258.130 115.591,254.938 115.066,252.907 114.824 C 250.875 114.583,248.766 114.215,248.220 114.008 C 247.674 113.800,245.016 113.344,242.313 112.994 C 239.611 112.645,236.410 112.110,235.200 111.806 C 233.990 111.503,231.200 111.049,229.000 110.798 C 226.800 110.548,224.100 110.095,223.000 109.792 C 221.900 109.489,219.274 109.043,217.165 108.801 C 215.055 108.560,212.355 108.102,211.165 107.786 C 207.441 106.795,205.237 107.003,203.534 108.506 M161.800 113.071 C 160.920 113.146,157.320 113.554,153.800 113.977 C 150.280 114.401,144.790 114.954,141.600 115.205 C 138.410 115.457,134.942 115.824,133.894 116.022 C 132.845 116.220,129.065 116.573,125.494 116.807 C 121.922 117.041,117.300 117.505,115.223 117.838 C 113.146 118.171,108.646 118.604,105.223 118.800 C 101.800 118.997,97.401 119.437,95.448 119.779 C 93.494 120.120,91.154 120.401,90.248 120.402 C 84.714 120.410,82.147 123.646,83.213 129.269 C 84.106 133.975,87.692 135.277,95.800 133.838 C 97.780 133.487,102.280 133.007,105.800 132.772 C 109.320 132.537,113.910 132.078,116.000 131.750 C 118.090 131.423,122.680 130.978,126.200 130.760 C 129.720 130.543,134.130 130.112,136.000 129.802 C 137.870 129.492,142.280 129.043,145.800 128.803 C 149.320 128.564,154.000 128.111,156.200 127.797 C 158.400 127.483,162.623 127.032,165.585 126.796 C 173.434 126.170,175.547 124.690,175.572 119.800 C 175.604 113.589,172.652 112.147,161.800 113.071 M119.479 164.817 C 109.126 167.401,104.844 179.496,111.560 187.188 C 122.082 199.241,140.611 188.081,134.852 173.159 C 132.665 167.494,125.132 163.406,119.479 164.817 M236.393 164.793 C 225.667 167.506,221.610 179.639,228.745 187.662 C 238.925 199.109,257.465 187.661,251.773 173.443 C 249.388 167.486,242.054 163.361,236.393 164.793 M129.121 253.972 C 128.307 254.134,127.407 254.460,127.121 254.695 C 126.834 254.930,125.880 255.317,125.000 255.555 C 122.392 256.262,115.204 263.117,115.199 264.903 C 115.198 265.177,114.821 266.016,114.362 266.770 C 112.595 269.669,112.388 282.321,114.075 284.303 C 114.401 284.686,114.916 285.630,115.220 286.400 C 116.245 289.004,117.675 290.767,121.059 293.600 C 122.614 294.902,126.420 296.800,127.476 296.800 C 127.976 296.800,129.152 297.115,130.092 297.500 C 131.658 298.142,133.955 298.200,157.800 298.200 C 181.628 298.200,183.946 298.142,185.550 297.500 C 186.513 297.115,187.683 296.797,188.150 296.794 C 188.618 296.791,189.450 296.532,190.000 296.218 C 190.550 295.905,191.618 295.363,192.373 295.014 C 200.584 291.222,205.559 274.791,201.023 266.444 C 200.711 265.870,200.169 264.784,199.820 264.032 C 199.470 263.280,198.828 262.415,198.392 262.109 C 197.956 261.804,197.600 261.336,197.600 261.069 C 197.600 260.803,196.677 259.868,195.548 258.992 C 194.419 258.116,193.043 256.995,192.489 256.500 C 191.936 256.005,191.104 255.599,190.642 255.599 C 190.179 255.598,189.170 255.193,188.400 254.699 L 187.000 253.800 158.800 253.738 C 143.290 253.705,129.934 253.810,129.121 253.972 M186.135 260.463 C 187.639 261.048,189.259 261.876,189.735 262.303 C 190.211 262.731,190.887 263.181,191.238 263.304 C 192.086 263.601,195.216 267.338,196.541 269.635 C 197.899 271.989,198.713 277.380,198.046 279.606 C 196.982 283.155,191.245 281.710,190.613 277.734 C 190.514 277.110,190.329 275.931,190.201 275.113 C 190.073 274.295,189.750 273.395,189.484 273.113 C 189.217 272.831,188.549 271.925,187.999 271.099 C 187.450 270.274,186.643 269.484,186.208 269.343 C 185.772 269.203,184.902 268.708,184.274 268.244 C 183.143 267.408,182.915 267.400,159.466 267.400 L 135.800 267.400 134.287 268.471 C 133.455 269.060,132.634 269.600,132.463 269.671 C 131.208 270.192,128.876 274.129,128.623 276.153 C 127.962 281.443,122.108 283.980,120.884 279.507 C 119.177 273.273,125.096 263.367,132.094 260.747 C 135.866 259.334,137.126 259.272,160.400 259.336 L 183.400 259.400 186.135 260.463 M313.600 342.024 C 313.600 342.477,313.420 342.736,313.200 342.600 C 312.980 342.464,312.800 342.543,312.800 342.776 C 312.800 343.009,313.070 343.200,313.400 343.200 C 313.773 343.200,314.000 342.822,314.000 342.200 C 314.000 341.650,313.910 341.200,313.800 341.200 C 313.690 341.200,313.600 341.571,313.600 342.024 M297.843 353.833 C 297.403 354.978,297.586 355.255,298.700 355.127 C 300.219 354.952,300.556 353.200,299.071 353.200 C 298.529 353.200,297.976 353.485,297.843 353.833 M290.000 360.113 C 290.000 360.785,290.251 361.046,290.950 361.104 C 291.716 361.168,291.900 360.990,291.900 360.191 C 291.900 359.414,291.694 359.200,290.950 359.200 C 290.228 359.200,290.000 359.419,290.000 360.113 " stroke="none" fill="#292e41" fill-rule="evenodd"></path><path id="path2" d="M176.880 15.280 C 176.616 15.544,176.400 15.994,176.400 16.280 C 176.400 16.591,175.918 16.800,175.200 16.800 C 174.380 16.800,174.000 16.603,174.000 16.176 C 174.000 15.833,173.817 15.666,173.593 15.804 C 173.370 15.942,173.291 16.223,173.417 16.428 C 173.553 16.648,172.060 16.800,169.768 16.800 C 166.542 16.800,165.799 16.918,165.357 17.500 C 165.032 17.928,164.820 18.005,164.813 17.700 C 164.794 16.959,163.844 17.093,162.691 18.000 C 162.035 18.516,161.057 18.803,159.937 18.810 C 157.588 18.822,155.112 19.433,154.607 20.122 C 154.350 20.475,153.141 20.768,151.410 20.898 C 149.158 21.068,148.518 21.270,148.064 21.954 C 147.731 22.455,147.074 22.802,146.451 22.804 C 144.066 22.814,142.292 23.327,142.100 24.061 C 141.949 24.637,141.522 24.800,140.161 24.800 C 138.632 24.800,138.384 24.924,138.164 25.800 C 137.940 26.694,137.708 26.800,135.983 26.800 C 133.633 26.800,132.000 27.370,132.000 28.190 C 132.000 28.604,131.606 28.800,130.776 28.800 C 130.063 28.800,129.656 28.967,129.800 29.200 C 129.936 29.420,129.857 29.600,129.624 29.600 C 129.391 29.600,129.200 29.791,129.200 30.024 C 129.200 30.257,129.380 30.336,129.600 30.200 C 129.820 30.064,130.000 30.155,130.000 30.402 C 130.000 30.648,129.685 30.818,129.300 30.779 C 126.856 30.530,126.000 30.795,126.000 31.800 C 126.000 32.726,125.859 32.800,124.100 32.805 C 121.539 32.813,120.472 33.144,120.194 34.018 C 120.067 34.420,119.566 34.806,119.081 34.875 C 118.521 34.954,118.153 35.328,118.072 35.900 C 117.966 36.646,117.692 36.801,116.472 36.806 C 114.773 36.813,113.906 37.246,114.079 38.001 C 114.145 38.292,113.750 38.643,113.200 38.783 C 112.650 38.922,112.178 39.253,112.150 39.518 C 112.123 39.783,112.078 40.170,112.050 40.378 C 112.022 40.586,111.145 40.811,110.100 40.878 C 108.496 40.981,108.181 41.136,108.075 41.875 C 107.998 42.421,107.621 42.798,107.075 42.875 C 106.521 42.954,106.153 43.330,106.072 43.900 C 105.966 44.646,105.692 44.801,104.472 44.806 C 102.773 44.813,101.906 45.246,102.079 46.001 C 102.145 46.292,101.750 46.642,101.200 46.781 C 100.576 46.938,100.152 47.365,100.072 47.916 C 99.993 48.466,99.663 48.800,99.200 48.800 C 98.733 48.800,98.408 49.135,98.328 49.700 C 98.217 50.481,97.962 50.600,96.400 50.600 C 94.932 50.600,94.529 50.761,94.216 51.475 C 94.004 51.957,93.509 52.435,93.116 52.538 C 92.716 52.643,92.400 53.094,92.400 53.563 C 92.400 54.189,92.148 54.400,91.400 54.400 C 90.608 54.400,90.400 54.602,90.400 55.372 C 90.400 56.076,90.151 56.380,89.500 56.472 C 88.922 56.554,88.554 56.922,88.472 57.500 C 88.402 57.995,88.084 58.400,87.767 58.400 C 86.972 58.400,85.518 59.257,84.882 60.100 C 84.592 60.485,83.994 60.800,83.554 60.800 C 83.113 60.800,82.864 60.980,83.000 61.200 C 83.136 61.420,83.057 61.600,82.824 61.600 C 82.591 61.600,82.400 61.870,82.400 62.200 C 82.400 62.530,82.130 62.800,81.800 62.800 C 81.470 62.800,81.200 62.950,81.200 63.134 C 81.200 63.318,80.120 64.593,78.800 65.967 C 77.218 67.615,76.400 68.796,76.400 69.433 C 76.400 70.198,76.191 70.400,75.400 70.400 C 74.608 70.400,74.400 70.602,74.400 71.372 C 74.400 72.076,74.151 72.380,73.500 72.472 C 72.930 72.553,72.554 72.921,72.475 73.475 C 72.398 74.021,72.021 74.398,71.475 74.475 C 70.921 74.554,70.553 74.930,70.472 75.500 C 70.402 75.995,70.166 76.400,69.949 76.400 C 69.731 76.400,69.663 76.578,69.797 76.795 C 69.937 77.022,69.777 77.089,69.421 76.953 C 69.026 76.801,68.800 76.938,68.800 77.329 C 68.800 77.666,68.517 78.226,68.171 78.571 C 67.826 78.917,67.736 79.200,67.971 79.200 C 68.207 79.200,68.400 79.492,68.400 79.849 C 68.400 80.380,68.291 80.408,67.800 80.000 C 67.353 79.629,67.200 79.622,67.200 79.975 C 67.200 80.235,66.993 80.319,66.739 80.162 C 65.363 79.312,67.026 84.229,69.593 88.600 C 70.239 89.700,71.036 91.410,71.364 92.400 C 71.692 93.390,72.232 94.920,72.563 95.800 C 73.092 97.206,73.167 107.842,73.182 183.562 C 73.200 268.860,73.208 269.717,73.977 269.021 C 74.405 268.634,74.865 267.814,75.000 267.200 C 75.135 266.586,75.595 265.766,76.023 265.379 C 76.450 264.993,76.803 264.479,76.807 264.238 C 76.814 263.832,77.833 262.164,80.087 258.865 C 86.781 249.071,98.767 238.443,109.000 233.226 C 109.880 232.777,110.870 232.240,111.200 232.032 C 112.293 231.344,117.056 229.200,117.492 229.200 C 117.728 229.200,118.883 228.752,120.060 228.204 C 121.237 227.656,122.560 227.205,123.000 227.201 C 123.440 227.198,124.340 226.911,125.000 226.564 C 125.660 226.217,127.730 225.666,129.600 225.339 C 131.470 225.012,133.900 224.442,135.000 224.072 C 138.068 223.041,232.732 223.041,235.800 224.072 C 236.900 224.442,239.330 225.012,241.200 225.339 C 243.070 225.666,245.135 226.213,245.789 226.556 C 246.444 226.898,247.751 227.294,248.694 227.435 C 249.638 227.577,250.500 227.838,250.609 228.015 C 250.719 228.192,251.975 228.726,253.400 229.200 C 254.825 229.674,256.085 230.215,256.200 230.401 C 256.315 230.587,257.307 231.037,258.405 231.402 C 259.502 231.766,260.400 232.215,260.400 232.399 C 260.400 232.583,261.210 233.043,262.200 233.421 C 263.190 233.799,264.000 234.247,264.000 234.415 C 264.000 234.584,264.495 234.902,265.100 235.122 C 265.705 235.341,266.560 235.811,267.000 236.165 C 267.440 236.520,268.700 237.383,269.800 238.085 C 273.970 240.745,281.878 247.890,285.200 252.000 C 286.355 253.430,287.600 254.870,287.966 255.200 C 288.932 256.071,294.706 264.877,295.399 266.536 C 295.723 267.311,296.157 268.050,296.365 268.178 C 296.572 268.306,296.961 269.084,297.229 269.906 C 297.497 270.728,298.050 271.829,298.458 272.354 C 298.866 272.879,299.202 273.599,299.204 273.954 C 299.206 274.309,299.650 275.500,300.191 276.600 C 300.732 277.700,301.181 278.911,301.187 279.291 C 301.194 279.671,301.623 281.111,302.140 282.491 C 302.656 283.871,303.201 285.935,303.350 287.077 C 303.499 288.219,303.894 289.807,304.228 290.605 C 305.974 294.783,305.974 320.817,304.228 324.995 C 303.894 325.793,303.499 327.381,303.350 328.523 C 303.201 329.665,302.656 331.729,302.140 333.109 C 301.623 334.489,301.194 335.929,301.187 336.309 C 301.181 336.689,300.732 337.900,300.191 339.000 C 299.650 340.100,299.206 341.242,299.204 341.538 C 299.202 341.834,298.865 342.554,298.456 343.138 C 298.046 343.722,297.493 344.872,297.226 345.694 C 296.960 346.516,296.580 347.289,296.382 347.411 C 296.185 347.533,295.682 348.391,295.266 349.317 C 294.850 350.242,293.855 351.963,293.055 353.140 C 292.255 354.317,291.600 355.418,291.600 355.586 C 291.600 355.754,291.231 356.362,290.779 356.936 C 289.234 358.900,289.427 359.418,291.644 359.261 C 293.325 359.142,293.639 358.986,293.845 358.161 C 294.016 357.481,294.367 357.200,295.043 357.200 C 295.797 357.200,296.000 356.988,296.000 356.200 C 296.000 355.486,296.216 355.200,296.757 355.200 C 297.230 355.200,297.607 354.826,297.764 354.200 C 297.967 353.393,298.265 353.199,299.308 353.194 C 300.772 353.187,301.800 352.667,301.800 351.933 C 301.800 351.660,302.250 351.331,302.800 351.202 C 303.421 351.056,303.847 350.641,303.925 350.108 C 304.001 349.580,304.386 349.201,304.925 349.125 C 305.470 349.047,305.847 348.670,305.925 348.125 C 306.002 347.579,306.379 347.202,306.925 347.125 C 307.479 347.046,307.847 346.670,307.928 346.100 C 308.020 345.449,308.324 345.200,309.028 345.200 C 309.563 345.200,310.000 345.009,310.000 344.776 C 310.000 344.543,310.192 344.472,310.427 344.617 C 310.662 344.762,310.953 344.503,311.074 344.040 C 311.199 343.562,311.618 343.200,312.047 343.200 C 312.461 343.200,312.800 343.009,312.800 342.776 C 312.800 342.543,312.980 342.464,313.200 342.600 C 313.420 342.736,313.600 342.477,313.600 342.024 C 313.600 341.571,313.827 341.200,314.104 341.200 C 314.729 341.200,315.594 339.850,316.152 338.003 C 316.443 337.036,316.641 299.838,316.788 218.400 L 317.000 100.200 318.111 97.000 C 319.948 91.709,321.576 88.957,325.240 84.950 C 327.866 82.076,328.352 80.418,327.287 77.960 C 326.915 77.102,326.396 76.400,326.133 76.400 C 325.871 76.400,325.598 75.995,325.528 75.500 C 325.447 74.930,325.079 74.554,324.525 74.475 C 323.979 74.398,323.602 74.021,323.525 73.475 C 323.446 72.921,323.070 72.553,322.500 72.472 C 321.849 72.380,321.600 72.076,321.600 71.372 C 321.600 70.703,321.376 70.400,320.880 70.400 C 320.433 70.400,319.979 69.907,319.681 69.100 C 319.417 68.385,317.972 66.526,316.470 64.969 C 314.968 63.412,313.623 61.837,313.482 61.469 C 313.341 61.101,312.928 60.800,312.565 60.800 C 312.202 60.800,311.291 60.260,310.539 59.600 C 309.787 58.940,308.921 58.400,308.614 58.400 C 308.307 58.400,307.998 57.995,307.928 57.500 C 307.847 56.930,307.479 56.554,306.925 56.475 C 306.379 56.398,306.002 56.021,305.925 55.475 C 305.846 54.921,305.470 54.553,304.900 54.472 C 304.405 54.402,304.000 54.092,304.000 53.782 C 304.000 53.473,303.454 52.938,302.787 52.593 C 302.120 52.248,301.669 51.812,301.785 51.625 C 302.070 51.163,301.020 50.800,299.395 50.800 C 298.311 50.800,298.031 50.629,297.928 49.900 C 297.847 49.330,297.479 48.954,296.925 48.875 C 296.379 48.798,296.002 48.421,295.925 47.875 C 295.847 47.330,295.470 46.953,294.925 46.875 C 294.379 46.798,294.002 46.421,293.925 45.875 C 293.819 45.136,293.504 44.981,291.900 44.878 C 290.185 44.768,290.000 44.661,290.000 43.778 C 290.000 43.001,289.794 42.800,289.000 42.800 C 288.200 42.800,288.000 42.600,288.000 41.800 C 288.000 40.867,287.867 40.800,286.000 40.800 C 284.133 40.800,284.000 40.733,284.000 39.800 C 284.000 39.000,283.800 38.800,283.000 38.800 C 282.085 38.800,281.766 38.282,281.953 37.100 C 281.979 36.935,281.233 36.800,280.295 36.800 C 278.910 36.800,278.515 36.631,278.195 35.900 C 277.978 35.405,277.395 34.942,276.900 34.872 C 276.405 34.802,276.000 34.482,276.000 34.162 C 276.000 33.363,274.336 32.800,271.974 32.800 C 270.135 32.800,270.000 32.732,270.000 31.800 C 270.000 30.817,269.188 30.515,267.260 30.779 C 266.963 30.820,266.838 30.661,266.983 30.427 C 267.129 30.192,267.057 30.000,266.824 30.000 C 266.591 30.000,266.400 29.809,266.400 29.576 C 266.400 29.343,266.608 29.281,266.862 29.438 C 267.148 29.615,267.215 29.548,267.038 29.262 C 266.881 29.008,266.268 28.797,265.676 28.794 C 264.530 28.787,263.574 28.338,263.466 27.755 C 263.430 27.560,263.265 27.445,263.100 27.500 C 262.935 27.555,262.800 27.420,262.800 27.200 C 262.800 26.980,262.665 26.821,262.500 26.847 C 260.830 27.111,258.400 26.721,258.400 26.190 C 258.400 25.476,256.838 24.800,255.187 24.800 C 254.356 24.800,254.086 24.641,254.240 24.240 C 254.596 23.313,253.113 22.890,249.276 22.823 C 248.548 22.810,248.051 22.640,248.172 22.445 C 248.589 21.770,247.245 21.147,244.928 20.941 C 242.869 20.758,241.595 20.364,239.105 19.141 C 238.723 18.954,237.438 18.800,236.248 18.800 C 234.722 18.800,234.020 18.628,233.862 18.216 C 233.565 17.445,231.103 16.781,230.706 17.366 C 230.506 17.661,230.410 17.640,230.406 17.300 C 230.402 16.936,229.377 16.800,226.633 16.800 C 223.994 16.800,222.806 16.650,222.665 16.300 C 222.504 15.900,222.457 15.900,222.432 16.300 C 222.395 16.873,220.000 17.000,220.000 16.429 C 220.000 16.224,219.717 15.774,219.371 15.429 C 218.545 14.603,177.700 14.460,176.880 15.280 M211.165 107.786 C 212.355 108.102,215.055 108.560,217.165 108.801 C 219.274 109.043,221.900 109.489,223.000 109.792 C 224.100 110.095,226.800 110.548,229.000 110.798 C 231.200 111.049,233.990 111.503,235.200 111.806 C 236.410 112.110,239.611 112.645,242.313 112.994 C 245.016 113.344,247.674 113.800,248.220 114.008 C 248.766 114.215,250.875 114.583,252.907 114.824 C 254.938 115.066,258.130 115.591,260.000 115.992 C 261.870 116.393,264.660 116.839,266.200 116.983 C 267.740 117.127,269.943 117.509,271.095 117.832 C 272.248 118.155,274.880 118.580,276.944 118.775 C 279.009 118.970,281.756 119.407,283.049 119.746 C 284.342 120.085,286.296 120.478,287.391 120.619 C 290.667 121.042,292.800 123.474,292.800 126.787 C 292.800 133.060,288.431 135.837,281.764 133.800 C 280.684 133.470,277.591 132.924,274.892 132.587 C 272.192 132.250,269.524 131.799,268.961 131.585 C 268.399 131.372,266.198 131.009,264.070 130.780 C 261.941 130.551,259.175 130.108,257.923 129.796 C 256.670 129.484,254.060 129.036,252.123 128.802 C 250.185 128.568,246.980 128.040,245.000 127.630 C 243.020 127.220,240.230 126.765,238.800 126.619 C 237.370 126.473,235.210 126.105,234.000 125.801 C 232.790 125.497,230.270 125.054,228.400 124.816 C 226.530 124.579,223.716 124.110,222.147 123.775 C 220.578 123.440,217.428 122.923,215.147 122.626 C 203.343 121.086,200.106 119.207,200.684 114.231 C 201.362 108.400,205.021 106.150,211.165 107.786 M172.996 113.669 C 175.385 115.548,176.317 120.256,174.881 123.192 C 173.730 125.545,171.779 126.302,165.585 126.796 C 162.623 127.032,158.400 127.483,156.200 127.797 C 154.000 128.111,149.320 128.564,145.800 128.803 C 142.280 129.043,137.870 129.492,136.000 129.802 C 134.130 130.112,129.720 130.543,126.200 130.760 C 122.680 130.978,118.090 131.423,116.000 131.750 C 113.910 132.078,109.320 132.537,105.800 132.772 C 102.280 133.007,97.780 133.487,95.800 133.838 C 87.692 135.277,84.106 133.975,83.213 129.269 C 82.147 123.646,84.714 120.410,90.248 120.402 C 91.154 120.401,93.494 120.120,95.448 119.779 C 97.401 119.437,101.800 118.997,105.223 118.800 C 108.646 118.604,113.146 118.171,115.223 117.838 C 117.300 117.505,121.922 117.041,125.494 116.807 C 129.065 116.573,132.845 116.220,133.894 116.022 C 134.942 115.824,138.410 115.457,141.600 115.205 C 144.790 114.954,150.280 114.401,153.800 113.977 C 166.177 112.487,171.388 112.403,172.996 113.669 M127.800 165.947 C 136.329 169.935,138.607 180.738,132.385 187.694 C 123.439 197.695,107.313 190.459,108.564 177.003 C 109.444 167.535,119.202 161.927,127.800 165.947 M244.600 165.947 C 252.711 169.739,255.283 179.628,250.022 186.791 C 244.868 193.808,234.585 194.229,228.745 187.662 C 218.892 176.583,231.224 159.693,244.600 165.947 " stroke="none" fill="#0197f6" fill-rule="evenodd"></path><path id="path3" d="M240.400 19.354 C 240.400 19.439,240.850 19.803,241.400 20.163 C 242.535 20.907,242.701 20.758,241.771 19.829 C 241.198 19.255,240.400 18.979,240.400 19.354 M138.187 223.587 C 136.420 223.747,134.620 224.067,134.187 224.297 C 133.754 224.527,131.960 224.939,130.200 225.212 C 128.440 225.486,126.245 226.045,125.322 226.455 C 124.399 226.865,123.319 227.202,122.922 227.204 C 122.525 227.206,121.237 227.656,120.060 228.204 C 118.883 228.752,117.728 229.200,117.492 229.200 C 117.056 229.200,112.293 231.344,111.200 232.032 C 110.870 232.240,109.880 232.777,109.000 233.226 C 98.767 238.443,86.781 249.071,80.087 258.865 C 77.833 262.164,76.814 263.832,76.807 264.238 C 76.803 264.479,76.450 264.993,76.023 265.379 C 75.595 265.766,75.135 266.586,75.000 267.200 C 74.865 267.814,74.423 268.617,74.017 268.985 C 73.611 269.352,73.157 270.306,73.007 271.105 C 72.857 271.904,72.389 272.996,71.967 273.533 C 71.545 274.069,71.200 274.890,71.200 275.357 C 71.200 275.824,70.750 277.052,70.200 278.085 C 69.650 279.118,69.203 280.197,69.207 280.482 C 69.211 280.767,68.769 282.440,68.226 284.200 C 67.683 285.960,66.946 288.930,66.589 290.800 C 66.233 292.670,65.782 294.920,65.588 295.800 C 64.846 299.162,65.132 317.894,65.979 321.427 C 66.405 323.202,66.881 325.632,67.037 326.827 C 67.193 328.022,67.744 330.129,68.260 331.509 C 68.777 332.889,69.200 334.382,69.200 334.827 C 69.200 335.273,69.650 336.482,70.200 337.515 C 70.750 338.548,71.200 339.776,71.200 340.243 C 71.200 340.710,71.537 341.521,71.948 342.046 C 72.359 342.571,72.890 343.810,73.127 344.800 C 73.364 345.790,73.745 347.320,73.974 348.200 C 74.203 349.080,74.495 350.495,74.622 351.344 C 74.782 352.416,75.089 352.951,75.626 353.091 C 76.118 353.220,76.400 353.641,76.400 354.247 C 76.400 354.997,76.613 355.200,77.400 355.200 C 78.133 355.200,78.400 355.413,78.400 356.000 C 78.400 357.114,80.225 357.113,80.516 355.999 C 80.631 355.559,80.515 355.064,80.257 354.899 C 80.000 354.735,79.608 354.060,79.387 353.400 C 78.959 352.123,76.982 351.459,76.402 352.398 C 76.200 352.723,75.900 352.644,75.382 352.130 C 74.671 351.422,74.680 351.396,75.683 351.277 C 77.045 351.116,77.438 349.712,76.429 348.611 C 76.021 348.165,75.565 347.227,75.417 346.528 C 75.270 345.828,74.904 345.052,74.606 344.805 C 74.307 344.557,73.944 343.650,73.798 342.789 C 73.653 341.928,73.203 340.804,72.800 340.291 C 72.396 339.777,71.944 338.647,71.796 337.779 C 71.647 336.910,71.211 335.750,70.828 335.200 C 70.444 334.650,70.004 333.124,69.851 331.809 C 69.697 330.494,69.218 328.819,68.786 328.086 C 68.307 327.275,67.999 326.020,67.997 324.877 C 67.996 323.845,67.695 321.290,67.328 319.200 C 66.371 313.742,66.180 302.287,66.986 298.742 C 67.328 297.237,67.719 294.339,67.855 292.303 C 68.024 289.773,68.336 288.211,68.839 287.372 C 69.244 286.697,69.701 285.077,69.853 283.772 C 70.005 282.467,70.444 280.950,70.828 280.400 C 71.211 279.850,71.647 278.690,71.796 277.821 C 71.944 276.953,72.391 275.830,72.788 275.325 C 73.185 274.820,73.633 273.751,73.783 272.949 C 73.934 272.147,74.404 270.844,74.828 270.052 C 75.253 269.260,75.600 268.462,75.600 268.279 C 75.600 268.096,76.050 267.357,76.600 266.636 C 77.150 265.914,77.603 265.161,77.607 264.962 C 77.614 264.626,78.664 262.928,80.887 259.658 C 87.704 249.631,100.289 238.563,110.263 233.823 C 111.398 233.284,112.435 232.667,112.568 232.452 C 112.701 232.237,113.392 231.934,114.105 231.779 C 114.817 231.623,115.829 231.159,116.354 230.748 C 116.879 230.337,117.779 229.999,118.354 229.999 C 118.929 229.998,119.960 229.656,120.644 229.239 C 121.328 228.821,122.948 228.261,124.244 227.994 C 125.540 227.727,127.060 227.273,127.623 226.984 C 128.185 226.695,130.165 226.252,132.023 225.999 C 133.880 225.745,136.570 225.237,138.000 224.869 C 140.355 224.263,144.824 224.200,185.400 224.200 C 225.976 224.200,230.445 224.263,232.800 224.869 C 234.230 225.237,236.920 225.745,238.777 225.999 C 240.635 226.252,242.615 226.695,243.177 226.984 C 243.740 227.273,245.213 227.717,246.451 227.973 C 247.689 228.228,249.392 228.788,250.236 229.218 C 251.079 229.648,252.157 230.000,252.631 230.000 C 253.104 230.000,253.921 230.325,254.446 230.722 C 254.971 231.119,256.174 231.691,257.120 231.993 C 258.066 232.295,258.929 232.684,259.037 232.859 C 259.145 233.034,259.991 233.549,260.917 234.002 C 263.447 235.243,265.004 236.122,266.054 236.905 C 266.574 237.293,267.911 238.193,269.024 238.905 C 274.050 242.122,281.101 248.665,285.936 254.600 C 287.728 256.800,289.466 258.915,289.797 259.300 C 290.129 259.685,290.400 260.156,290.400 260.346 C 290.400 260.536,290.805 261.196,291.300 261.812 C 292.308 263.065,295.763 269.182,296.457 270.941 C 296.704 271.568,297.312 272.843,297.807 273.775 C 298.302 274.706,298.829 276.020,298.977 276.695 C 299.125 277.370,299.596 278.608,300.023 279.446 C 300.450 280.284,300.804 281.426,300.809 281.985 C 300.814 282.543,301.169 283.775,301.599 284.722 C 302.029 285.669,302.558 287.829,302.774 289.522 C 302.990 291.215,303.479 293.590,303.859 294.800 C 304.883 298.055,304.883 317.545,303.859 320.800 C 303.479 322.010,302.990 324.385,302.774 326.078 C 302.558 327.771,302.029 329.931,301.599 330.878 C 301.169 331.825,300.814 333.057,300.809 333.615 C 300.804 334.174,300.460 335.298,300.044 336.114 C 299.628 336.930,299.166 338.081,299.018 338.670 C 298.742 339.770,296.670 344.526,295.999 345.600 C 295.793 345.930,295.258 346.920,294.811 347.800 C 292.910 351.538,289.297 357.159,287.924 358.516 C 287.526 358.909,287.200 359.488,287.200 359.802 C 287.200 360.115,286.840 360.565,286.400 360.800 C 285.056 361.519,285.336 363.200,286.800 363.200 C 287.813 363.200,288.000 363.044,288.000 362.200 C 288.000 361.392,288.198 361.200,289.033 361.200 C 289.980 361.200,290.050 361.086,289.879 359.815 C 289.740 358.783,289.935 358.101,290.646 357.138 C 291.171 356.426,291.600 355.718,291.600 355.562 C 291.600 355.407,292.255 354.317,293.055 353.140 C 293.855 351.963,294.850 350.242,295.266 349.317 C 295.682 348.391,296.185 347.533,296.382 347.411 C 296.580 347.289,296.960 346.516,297.226 345.694 C 297.493 344.872,298.046 343.722,298.456 343.138 C 298.865 342.554,299.202 341.834,299.204 341.538 C 299.206 341.242,299.650 340.100,300.191 339.000 C 300.732 337.900,301.181 336.689,301.187 336.309 C 301.194 335.929,301.623 334.489,302.140 333.109 C 302.656 331.729,303.201 329.665,303.350 328.523 C 303.499 327.381,303.894 325.793,304.228 324.995 C 305.974 320.817,305.974 294.783,304.228 290.605 C 303.894 289.807,303.499 288.219,303.350 287.077 C 303.201 285.935,302.656 283.871,302.140 282.491 C 301.623 281.111,301.194 279.671,301.187 279.291 C 301.181 278.911,300.732 277.700,300.191 276.600 C 299.650 275.500,299.206 274.309,299.204 273.954 C 299.202 273.599,298.866 272.879,298.458 272.354 C 298.050 271.829,297.497 270.728,297.229 269.906 C 296.961 269.084,296.572 268.306,296.365 268.178 C 296.157 268.050,295.723 267.311,295.399 266.536 C 294.706 264.877,288.932 256.071,287.966 255.200 C 287.600 254.870,286.355 253.430,285.200 252.000 C 281.878 247.890,273.970 240.745,269.800 238.085 C 268.700 237.383,267.440 236.520,267.000 236.165 C 266.560 235.811,265.705 235.341,265.100 235.122 C 264.495 234.902,264.000 234.584,264.000 234.415 C 264.000 234.247,263.190 233.799,262.200 233.421 C 261.210 233.043,260.400 232.583,260.400 232.399 C 260.400 232.215,259.502 231.766,258.405 231.402 C 257.307 231.037,256.315 230.587,256.200 230.401 C 256.085 230.215,254.825 229.674,253.400 229.200 C 251.975 228.726,250.719 228.192,250.609 228.015 C 250.500 227.838,249.638 227.577,248.694 227.435 C 247.751 227.294,246.444 226.898,245.789 226.556 C 245.135 226.213,243.070 225.667,241.200 225.342 C 239.330 225.017,236.990 224.448,236.000 224.078 C 234.067 223.356,145.623 222.912,138.187 223.587 M128.445 252.820 C 126.882 253.030,125.562 253.461,125.045 253.929 C 124.580 254.350,123.750 254.802,123.200 254.933 C 121.240 255.399,114.961 261.370,114.537 263.172 C 114.404 263.738,113.971 264.560,113.575 265.000 C 113.179 265.440,112.644 267.016,112.386 268.502 C 112.128 269.988,111.756 271.304,111.559 271.426 C 111.053 271.738,111.110 279.085,111.626 280.048 C 111.860 280.486,112.231 281.959,112.450 283.322 C 112.683 284.767,113.172 286.144,113.625 286.626 C 114.051 287.080,114.400 287.610,114.400 287.804 C 114.400 289.204,119.343 294.499,121.500 295.410 C 122.215 295.712,122.800 296.134,122.800 296.349 C 122.800 296.563,123.475 296.950,124.300 297.209 C 125.125 297.468,126.539 298.025,127.442 298.447 C 129.777 299.539,187.004 299.448,188.258 298.351 C 188.666 297.994,189.657 297.584,190.460 297.440 C 191.263 297.296,192.148 296.903,192.428 296.566 C 192.708 296.229,193.491 295.720,194.168 295.435 C 195.787 294.754,200.367 290.085,200.673 288.804 C 200.805 288.252,201.225 287.499,201.606 287.131 C 201.987 286.764,202.424 285.774,202.575 284.931 C 202.727 284.089,203.218 282.630,203.667 281.689 C 204.732 279.454,204.647 270.593,203.549 269.342 C 203.191 268.934,202.778 267.766,202.631 266.746 C 202.485 265.726,202.029 264.588,201.618 264.217 C 201.208 263.845,200.768 263.126,200.641 262.620 C 200.513 262.113,199.957 261.402,199.405 261.040 C 198.852 260.678,198.400 260.116,198.400 259.791 C 198.400 259.466,198.256 259.200,198.079 259.200 C 197.903 259.200,196.778 258.299,195.579 257.198 C 194.381 256.097,192.725 254.988,191.900 254.734 C 191.075 254.481,190.400 254.139,190.400 253.976 C 190.400 252.680,136.920 251.683,128.445 252.820 M188.400 254.699 C 189.170 255.193,190.179 255.598,190.642 255.599 C 191.104 255.599,191.936 256.005,192.489 256.500 C 193.043 256.995,194.419 258.116,195.548 258.992 C 196.677 259.868,197.600 260.803,197.600 261.069 C 197.600 261.336,197.956 261.804,198.392 262.109 C 198.828 262.415,199.470 263.280,199.820 264.032 C 200.169 264.784,200.711 265.870,201.023 266.444 C 205.559 274.791,200.584 291.222,192.373 295.014 C 191.618 295.363,190.550 295.905,190.000 296.218 C 189.450 296.532,188.618 296.791,188.150 296.794 C 187.683 296.797,186.513 297.115,185.550 297.500 C 183.946 298.142,181.628 298.200,157.800 298.200 C 133.955 298.200,131.658 298.142,130.092 297.500 C 129.152 297.115,127.976 296.800,127.476 296.800 C 126.420 296.800,122.614 294.902,121.059 293.600 C 117.675 290.767,116.245 289.004,115.220 286.400 C 114.916 285.630,114.401 284.686,114.075 284.303 C 112.388 282.321,112.595 269.669,114.362 266.770 C 114.821 266.016,115.198 265.177,115.199 264.903 C 115.204 263.117,122.392 256.262,125.000 255.555 C 125.880 255.317,126.834 254.930,127.121 254.695 C 128.238 253.778,131.526 253.679,158.800 253.738 L 187.000 253.800 188.400 254.699 M135.800 259.615 C 126.420 261.626,118.778 271.817,120.884 279.507 C 122.108 283.980,127.962 281.443,128.623 276.153 C 128.876 274.129,131.208 270.192,132.463 269.671 C 132.634 269.600,133.455 269.060,134.287 268.471 L 135.800 267.400 159.466 267.400 C 182.915 267.400,183.143 267.408,184.274 268.244 C 184.902 268.708,185.772 269.203,186.208 269.343 C 186.643 269.484,187.450 270.274,187.999 271.099 C 188.549 271.925,189.217 272.831,189.484 273.113 C 189.750 273.395,190.073 274.295,190.201 275.113 C 190.329 275.931,190.514 277.110,190.613 277.734 C 191.245 281.710,196.982 283.155,198.046 279.606 C 198.713 277.380,197.899 271.989,196.541 269.635 C 195.216 267.338,192.086 263.601,191.238 263.304 C 190.887 263.181,190.211 262.731,189.735 262.303 C 189.259 261.876,187.639 261.048,186.135 260.463 L 183.400 259.400 160.400 259.336 C 147.750 259.301,136.680 259.427,135.800 259.615 M78.400 358.409 C 78.400 358.638,78.678 358.932,79.017 359.062 C 79.955 359.422,80.066 359.033,79.182 358.481 C 78.687 358.172,78.400 358.146,78.400 358.409 M80.400 359.575 C 80.400 361.042,80.497 361.200,81.400 361.200 C 82.200 361.200,82.400 361.400,82.400 362.200 C 82.400 363.000,82.600 363.200,83.400 363.200 C 84.200 363.200,84.400 363.400,84.400 364.200 C 84.400 365.000,84.600 365.200,85.400 365.200 C 86.200 365.200,86.400 365.400,86.400 366.200 C 86.400 367.000,86.600 367.200,87.400 367.200 C 88.200 367.200,88.400 367.400,88.400 368.200 C 88.400 368.992,88.602 369.200,89.372 369.200 C 90.076 369.200,90.380 369.449,90.472 370.100 C 90.554 370.678,90.922 371.046,91.500 371.128 C 92.151 371.220,92.400 371.524,92.400 372.228 C 92.400 372.922,92.621 373.200,93.172 373.200 C 93.668 373.200,93.990 373.522,94.072 374.100 C 94.153 374.670,94.521 375.046,95.075 375.125 C 95.619 375.202,95.998 375.579,96.075 376.121 C 96.146 376.613,96.546 377.058,96.996 377.144 C 97.433 377.227,98.029 377.634,98.318 378.048 C 98.680 378.564,99.332 378.800,100.395 378.800 C 101.688 378.800,101.966 378.946,102.072 379.684 C 102.307 381.310,105.200 381.452,105.200 379.837 C 105.200 378.768,104.492 378.000,103.507 378.000 C 103.105 378.000,102.674 377.737,102.550 377.415 C 102.427 377.094,101.956 376.713,101.504 376.570 C 100.774 376.338,99.884 375.593,96.986 372.788 C 96.538 372.355,95.960 372.000,95.700 372.000 C 95.440 372.000,95.035 371.640,94.800 371.200 C 94.565 370.760,94.001 370.400,93.548 370.400 C 93.069 370.400,92.640 370.075,92.522 369.622 C 92.410 369.195,91.932 368.790,91.459 368.722 C 90.921 368.646,90.552 368.263,90.472 367.700 C 90.390 367.122,90.068 366.800,89.572 366.800 C 89.055 366.800,88.800 366.523,88.800 365.963 C 88.800 365.460,88.478 365.041,87.996 364.915 C 87.553 364.799,87.083 364.271,86.950 363.742 C 86.817 363.212,86.369 362.597,85.954 362.375 C 85.539 362.153,85.200 361.717,85.200 361.406 C 85.200 361.094,84.917 360.681,84.571 360.488 C 84.224 360.294,83.725 359.700,83.461 359.168 C 82.538 357.305,80.400 357.589,80.400 359.575 M280.058 367.443 C 278.638 368.881,278.362 369.393,278.567 370.210 C 278.932 371.665,281.647 371.494,282.001 369.994 C 282.149 369.367,282.516 369.002,282.999 369.001 C 283.480 369.000,283.853 368.631,284.008 368.000 C 284.732 365.061,282.693 364.774,280.058 367.443 M276.594 371.900 C 276.773 372.253,276.434 372.400,275.438 372.400 C 274.438 372.400,273.904 372.632,273.600 373.200 C 273.365 373.640,272.910 374.000,272.589 374.000 C 272.269 374.000,271.782 374.360,271.507 374.800 C 271.232 375.240,270.781 375.600,270.504 375.600 C 269.723 375.600,268.400 377.109,268.400 378.000 C 268.400 378.693,268.667 378.800,270.400 378.800 C 272.109 378.800,272.400 378.688,272.400 378.028 C 272.400 377.532,272.722 377.210,273.300 377.128 C 273.870 377.047,274.246 376.679,274.325 376.125 C 274.402 375.579,274.779 375.202,275.325 375.125 C 275.870 375.047,276.247 374.670,276.325 374.125 C 276.393 373.643,276.717 373.193,277.045 373.125 C 277.560 373.017,277.552 372.892,276.990 372.200 C 276.633 371.760,276.455 371.625,276.594 371.900 M265.833 378.764 C 265.452 379.184,264.659 379.648,264.071 379.794 C 263.482 379.940,262.640 380.385,262.200 380.784 C 261.760 381.182,260.950 381.639,260.400 381.800 C 259.850 381.961,259.040 382.407,258.600 382.792 C 258.160 383.177,257.187 383.608,256.438 383.749 C 253.055 384.385,252.866 386.800,256.200 386.800 C 258.280 386.800,258.400 386.745,258.400 385.800 C 258.400 384.867,258.533 384.800,260.400 384.800 C 262.255 384.800,262.400 384.729,262.400 383.822 C 262.400 382.939,262.585 382.832,264.300 382.722 C 265.921 382.618,266.219 382.468,266.328 381.700 C 266.420 381.049,266.724 380.800,267.428 380.800 C 268.663 380.800,268.809 379.047,267.626 378.414 C 266.621 377.876,266.639 377.872,265.833 378.764 M106.500 380.665 C 106.225 380.776,106.000 381.233,106.000 381.680 C 106.000 382.297,105.806 382.443,105.199 382.284 C 104.759 382.169,104.500 382.238,104.623 382.437 C 104.746 382.637,105.544 382.800,106.396 382.800 C 107.697 382.800,107.965 382.944,108.072 383.700 C 108.181 384.466,108.479 384.618,110.075 384.721 C 111.656 384.823,111.969 384.979,112.075 385.721 C 112.185 386.492,112.480 386.615,114.486 386.720 C 116.356 386.817,116.913 387.018,117.544 387.820 C 118.674 389.256,122.000 389.278,122.000 387.849 C 122.000 386.199,120.262 385.371,118.604 386.232 C 117.097 387.013,116.800 386.950,116.800 385.849 C 116.800 384.678,116.125 384.085,114.399 383.740 C 113.671 383.594,112.761 383.161,112.378 382.778 C 111.995 382.395,111.136 381.962,110.468 381.815 C 109.801 381.668,109.041 381.290,108.779 380.974 C 108.303 380.401,107.444 380.284,106.500 380.665 M249.280 386.480 C 248.071 387.689,248.703 388.800,250.600 388.800 C 252.212 388.800,252.400 388.704,252.400 387.880 C 252.400 386.734,251.697 386.000,250.600 386.000 C 250.138 386.000,249.544 386.216,249.280 386.480 M253.500 388.067 C 252.908 388.687,252.894 388.800,253.413 388.800 C 253.749 388.800,254.132 388.522,254.262 388.183 C 254.609 387.279,254.298 387.231,253.500 388.067 M124.889 388.223 C 122.978 389.561,123.704 390.800,126.400 390.800 C 129.398 390.800,129.994 389.258,127.413 388.180 C 125.729 387.476,125.961 387.472,124.889 388.223 M243.300 388.196 C 240.467 389.428,241.469 390.800,245.200 390.800 L 248.400 390.800 248.400 389.443 C 248.400 387.508,246.150 386.958,243.300 388.196 M122.000 389.813 C 122.000 390.149,122.278 390.532,122.617 390.662 C 123.521 391.009,123.569 390.698,122.733 389.900 C 122.113 389.308,122.000 389.294,122.000 389.813 M132.254 390.186 C 131.624 390.524,130.859 390.800,130.554 390.800 C 130.236 390.800,130.000 391.208,130.000 391.758 L 130.000 392.717 135.148 392.775 L 140.296 392.834 140.111 391.869 C 139.803 390.259,134.312 389.082,132.254 390.186 M235.000 389.859 C 231.625 390.562,230.872 390.911,230.692 391.853 L 230.506 392.824 235.353 392.712 L 240.200 392.600 240.332 391.443 C 240.525 389.750,238.464 389.138,235.000 389.859 " stroke="none" fill="#aaabaf" fill-rule="evenodd"></path></g></svg>